<?xml version="1.0" encoding="utf-8"?>
<!-- Generator: Adobe Illustrator 19.0.0, SVG Export Plug-In . SVG Version: 6.00 Build 0)  -->
<svg version="1.1" id="Calque_1" xmlns="http://www.w3.org/2000/svg" xmlns:xlink="http://www.w3.org/1999/xlink" x="0px" y="0px"
	 viewBox="0 0 835.5 723" style="enable-background:new 0 0 835.5 723;" xml:space="preserve">
<style type="text/css">
	.st0{fill:#777777;}
	.st1{fill:#FFFFFF;}
	.st2{fill:#41A49D;}
	.st3{font-family:'Roboto-Bold';}
	.st4{font-size:29.124px;}
	.st5{fill:#D1D1D1;}
</style>
<circle id="XMLID_2_" class="st0" cx="399.4" cy="104.3" r="19.3"/>
<g id="XMLID_20_">
	<path id="XMLID_21_" class="st1" d="M404,110.7h-8.9v-1.9l4.1-4.3c1-1.2,1.5-2.1,1.5-2.8c0-0.6-0.1-1-0.4-1.3s-0.6-0.4-1-0.4
		c-0.5,0-0.8,0.2-1.1,0.6s-0.4,0.9-0.4,1.4h-3c0-0.8,0.2-1.5,0.6-2.2s0.9-1.2,1.6-1.6s1.5-0.6,2.3-0.6c1.4,0,2.4,0.3,3.2,1
		s1.1,1.6,1.1,2.8c0,0.5-0.1,1-0.3,1.5s-0.5,1-0.9,1.5s-1,1.2-1.9,2.1l-1.7,1.9h5V110.7z"/>
</g>
<circle id="XMLID_7_" class="st0" cx="659.4" cy="364.3" r="19.3"/>
<g id="XMLID_17_">
	<path id="XMLID_18_" class="st1" d="M657.9,363h1.4c1.1,0,1.7-0.5,1.7-1.6c0-0.4-0.1-0.8-0.4-1s-0.6-0.4-1.1-0.4
		c-0.4,0-0.7,0.1-1,0.3s-0.4,0.5-0.4,0.9h-3c0-0.7,0.2-1.3,0.6-1.8s0.9-0.9,1.6-1.2s1.4-0.4,2.2-0.4c1.4,0,2.5,0.3,3.4,1
		s1.2,1.5,1.2,2.7c0,0.6-0.2,1.1-0.5,1.6s-0.8,0.9-1.5,1.2c0.7,0.2,1.2,0.6,1.6,1.1s0.6,1.1,0.6,1.9c0,1.1-0.4,2.1-1.3,2.7
		s-2,1-3.5,1c-0.8,0-1.6-0.2-2.3-0.5s-1.3-0.8-1.6-1.3s-0.6-1.2-0.6-1.9h3c0,0.4,0.2,0.7,0.5,1s0.7,0.4,1.2,0.4
		c0.5,0,0.9-0.1,1.2-0.4s0.5-0.7,0.5-1.1c0-0.6-0.2-1.1-0.5-1.4s-0.8-0.4-1.3-0.4h-1.4V363z"/>
</g>
<circle id="XMLID_9_" class="st0" cx="399.4" cy="625.3" r="19.3"/>
<g id="XMLID_13_">
	<path id="XMLID_14_" class="st1" d="M402.8,626.7h1.3v2.3h-1.3v2.7h-3v-2.7h-4.9l-0.2-1.8l5.1-8.2v0h3V626.7z M397.6,626.7h2.3
		v-3.9l-0.2,0.3L397.6,626.7z"/>
</g>
<circle id="XMLID_8_" class="st0" cx="138.4" cy="364.3" r="19.3"/>
<g id="XMLID_4_">
	<path id="XMLID_11_" class="st1" d="M141.4,370.7h-3v-9.5l-2.9,0.9v-2.3l5.6-1.9h0.3V370.7z"/>
</g>
<text id="XMLID_23_" transform="matrix(1 0 0 1 38.0377 371.8356)" class="st2 st3 st4">Idea</text>
<g id="XMLID_25_">
	<text id="XMLID_125_" transform="matrix(1 0 0 1 696.7006 374.9929)" class="st2 st3 st4">Launch</text>
</g>
<g id="XMLID_27_">
	<text id="XMLID_126_" transform="matrix(1 0 0 1 362.7004 64.9929)" class="st2 st3 st4">Build</text>
</g>
<g id="XMLID_26_">
	<text id="XMLID_127_" transform="matrix(1 0 0 1 362.7006 674.9929)" class="st2 st3 st4">Learn</text>
</g>
<path id="XMLID_57_" class="st5" d="M428,104.3c0,1.4-0.1,2.8-0.3,4.1c-0.1,0.7,0.4,1.4,1.1,1.5c117.6,13.7,211.1,107.3,224.6,225
	c0.1,0.7,0.8,1.3,1.5,1.2c1.5-0.2,3-0.3,4.5-0.3c0.2,0,0.4,0,0.7,0c0.8,0,1.5-0.7,1.4-1.5c-6.7-59.2-32.9-114-75.7-156.7
	c-42.6-42.6-97.3-68.9-156.3-75.6c-0.8-0.1-1.5,0.6-1.5,1.4C428,103.6,428,103.9,428,104.3z"/>
<path id="XMLID_58_" class="st5" d="M138.4,335.7c1.6,0,3.1,0.1,4.7,0.4c0.7,0.1,1.4-0.4,1.5-1.2C158.1,217,252,123.2,369.9,109.8
	c0.7-0.1,1.3-0.8,1.2-1.5c-0.2-1.3-0.3-2.7-0.3-4c0-0.4,0-0.7,0-1.1c0-0.8-0.7-1.5-1.5-1.4c-59.3,6.6-114.3,32.9-157.1,75.7
	c-42.7,42.7-69,97.5-75.7,156.7c-0.1,0.8,0.6,1.5,1.4,1.5C138.1,335.7,138.3,335.7,138.4,335.7z"/>
<path id="XMLID_59_" class="st2" d="M370.8,625.3c0-1.7,0.2-3.4,0.4-5c0.1-0.7-0.4-1.4-1.2-1.5c-118-13.3-212-107.1-225.5-225.1
	c-0.1-0.7-0.8-1.3-1.5-1.2c-1.5,0.3-3.1,0.4-4.7,0.4c-0.1,0-0.3,0-0.4,0c-0.8,0-1.5,0.7-1.4,1.5c6.7,59.2,32.9,113.9,75.7,156.7
	c42.8,42.8,97.7,69.1,157,75.7C370.1,626.8,370.8,626.2,370.8,625.3L370.8,625.3z"/>
<path id="XMLID_64_" class="st2" d="M165.9,365.1c0,1.7-0.2,3.4-0.4,5c-0.1,0.7,0.4,1.4,1.2,1.5c118,13.3,212,107.1,225.5,225.1
	c0.1,0.7,0.8,1.3,1.5,1.2c1.5-0.3,3.1-0.4,4.7-0.4c0.1,0,0.3,0,0.4,0c0.8,0,1.5-0.7,1.4-1.5c-6.7-59.2-32.9-113.9-75.7-156.7
	c-42.8-42.8-97.7-69.1-157-75.7C166.6,363.6,165.9,364.2,165.9,365.1L165.9,365.1z"/>
<path id="XMLID_60_" class="st5" d="M659.4,392.9c-1.5,0-3-0.1-4.5-0.3c-0.7-0.1-1.4,0.4-1.5,1.2c-13.5,117.7-107.1,211.3-224.7,225
	c-0.8,0.1-1.3,0.8-1.2,1.5c0.3,1.7,0.5,3.4,0.5,5.1l0,0c0,0.8,0.7,1.4,1.5,1.3c59-6.7,113.6-33,156.2-75.6
	c42.7-42.7,69-97.5,75.7-156.7c0.1-0.8-0.6-1.5-1.4-1.5C659.9,392.9,659.7,392.9,659.4,392.9z"/>
</svg>
